<?xml version="1.0" standalone="no"?>
<!DOCTYPE svg PUBLIC "-//W3C//DTD SVG 20010904//EN"
 "http://www.w3.org/TR/2001/REC-SVG-20010904/DTD/svg10.dtd">
<svg version="1.0" xmlns="http://www.w3.org/2000/svg"
 width="512.000000pt" height="512.000000pt" viewBox="0 0 512.000000 512.000000"
 preserveAspectRatio="xMidYMid meet">
<metadata>
Created by potrace 1.14, written by Peter Selinger 2001-2017
</metadata>
<g transform="translate(0.000000,512.000000) scale(0.100000,-0.100000)"
fill="#000000" stroke="none">
<path d="M1306 4054 c-159 -51 -258 -190 -252 -355 8 -217 195 -371 410 -338
169 27 288 165 291 339 4 152 -67 270 -200 336 -68 33 -177 41 -249 18z"/>
<path d="M3097 3104 c-151 -42 -273 -123 -357 -236 -23 -32 -43 -58 -44 -58
-1 0 -2 60 -1 134 l0 134 -297 1 -298 0 0 -992 0 -992 304 0 c167 0 307 2 310
5 3 3 6 253 6 556 1 305 6 571 11 599 6 28 11 59 12 70 4 45 73 160 115 192
96 72 274 88 380 34 81 -41 126 -111 158 -246 4 -16 9 -291 11 -610 2 -319 5
-585 7 -590 3 -7 105 -11 307 -10 l304 0 -1 610 c0 687 -4 774 -44 933 -30
118 -90 230 -163 305 -124 128 -271 179 -517 182 -101 1 -140 -3 -203 -21z"/>
<path d="M1095 2087 l0 -992 310 0 310 0 0 990 0 990 -310 2 -310 2 0 -992z"/>
</g>
</svg>
